<svg width="30" height="30" viewBox="0 0 30 30" fill="none" xmlns="http://www.w3.org/2000/svg">
<rect width="30" height="30" rx="4" fill="#FFB3A6"/>
<g clip-path="url(#clip0_86_281)">
<path d="M20.0957 9H10.9043C9.85439 9 9 9.85439 9 10.9043V20.0957C9 21.1459 9.85439 22 10.9043 22H20.0957C21.1459 22 22 21.1459 22 20.0957V10.9043C22 9.85439 21.1459 9 20.0957 9ZM21.2383 20.0957C21.2383 20.7256 20.7256 21.2383 20.0957 21.2383H10.9043C10.2744 21.2383 9.76172 20.7256 9.76172 20.0957V10.9043C9.76172 10.2744 10.2744 9.76172 10.9043 9.76172H20.0957C20.7256 9.76172 21.2383 10.2744 21.2383 10.9043V20.0957Z" fill="#1B1A20"/>
<path d="M19.6895 10.5488C19.2696 10.5488 18.9278 10.8906 18.9278 11.3105C18.9278 11.7305 19.2696 12.0723 19.6895 12.0723C20.1095 12.0723 20.4512 11.7305 20.4512 11.3105C20.4512 10.8906 20.1095 10.5488 19.6895 10.5488Z" fill="#1B1A20"/>
<path d="M15.5001 12.0723C13.61 12.0723 12.0723 13.6099 12.0723 15.5C12.0723 17.3901 13.61 18.9277 15.5001 18.9277C17.3901 18.9277 18.9278 17.3901 18.9278 15.5C18.9278 13.6099 17.3901 12.0723 15.5001 12.0723ZM15.5001 18.166C14.0299 18.166 12.834 16.9701 12.834 15.5C12.834 14.0299 14.0299 12.834 15.5001 12.834C16.9702 12.834 18.1661 14.0299 18.1661 15.5C18.1661 16.9701 16.9702 18.166 15.5001 18.166Z" fill="#1B1A20"/>
</g>
<defs>
<clipPath id="clip0_86_281">
<rect width="13" height="13" fill="white" transform="translate(9 9)"/>
</clipPath>
</defs>
</svg>
