<svg width="30" height="30" viewBox="0 0 30 30" fill="none" xmlns="http://www.w3.org/2000/svg">
<rect width="30" height="30" rx="4" fill="#FFB3A6"/>
<path d="M23.5 10.539C22.8678 10.8 22.1942 10.973 21.4919 11.057C22.2144 10.651 22.7658 10.013 23.0251 9.244C22.3514 9.622 21.6077 9.889 20.8151 10.038C20.1754 9.397 19.2638 9 18.2693 9C16.3398 9 14.7864 10.474 14.7864 12.281C14.7864 12.541 14.8098 12.791 14.8672 13.029C11.9697 12.896 9.40594 11.589 7.68362 9.598C7.38294 10.089 7.20656 10.651 7.20656 11.256C7.20656 12.392 7.82812 13.399 8.75462 13.982C8.19469 13.972 7.64538 13.819 7.18 13.578C7.18 13.588 7.18 13.601 7.18 13.614C7.18 15.208 8.38806 16.532 9.97225 16.837C9.68856 16.91 9.37937 16.945 9.0585 16.945C8.83538 16.945 8.61012 16.933 8.39869 16.889C8.85025 18.188 10.1316 19.143 11.6553 19.174C10.4695 20.047 8.96394 20.573 7.33406 20.573C7.04825 20.573 6.77412 20.561 6.5 20.528C8.04381 21.465 9.87344 22 11.8465 22C18.2597 22 21.766 17 21.766 12.666C21.766 12.521 21.7607 12.381 21.7532 12.242C22.4449 11.78 23.0261 11.203 23.5 10.539Z" fill="#1B1A20"/>
</svg>
